<svg xmlns="http://www.w3.org/2000/svg" viewBox="0 0 16 16" fill="#ffffff">
  <path d="M8 0C3.58 0 0 3.58 0 8c0 3.54 2.29 6.53 5.47 7.59.4.07.55-.17.55-.38 0-.18-.01-.65-.01-1.28-2.22.48-2.68-1.07-2.68-1.07-.36-.9-.87-1.14-.87-1.14-.71-.48.05-.47.05-.47.79.06 1.21.84 1.21.84.7 1.21 1.84.86 2.27.66.07-.52.28-.86.51-1.07-1.78-.2-3.64-.89-3.64-3.95 0-.87.31-1.58.82-2.14-.08-.2-.36-.99.08-2.07 0 0 .67-.21 2.19.82A7.17 7.17 0 0 1 8 3.1c.68 0 1.35.09 1.98.26 1.53-1.03 2.2-.82 2.2-.82.44 1.08.17 1.87.09 2.07.51.56.82 1.27.82 2.14 0 3.07-1.87 3.74-3.65 3.94.29.24.55.71.55 1.43 0 1.03-.01 1.85-.01 2.1 0 .21.15.45.55.38C13.71 14.53 16 11.54 16 8c0-4.42-3.58-8-8-8z"/>
</svg>